<?xml version="1.0" encoding="UTF-8" standalone="no"?>
<svg
   viewBox="0 0 24 24"
   width="24"
   height="24"
   version="1.1"
   id="svg1"
   sodipodi:docname="pull-request-draft.svg"
   inkscape:version="1.3.2 (091e20e, 2023-11-25)"
   xmlns:inkscape="http://www.inkscape.org/namespaces/inkscape"
   xmlns:sodipodi="http://sodipodi.sourceforge.net/DTD/sodipodi-0.dtd"
   xmlns="http://www.w3.org/2000/svg"
   xmlns:svg="http://www.w3.org/2000/svg">
  <defs
     id="defs1" />
  <sodipodi:namedview
     id="namedview1"
     pagecolor="#ffffff"
     bordercolor="#000000"
     borderopacity="0.25"
     inkscape:showpageshadow="2"
     inkscape:pageopacity="0.0"
     inkscape:pagecheckerboard="0"
     inkscape:deskcolor="#d1d1d1"
     inkscape:zoom="9.8333333"
     inkscape:cx="11.898305"
     inkscape:cy="12"
     inkscape:window-width="1392"
     inkscape:window-height="1051"
     inkscape:window-x="0"
     inkscape:window-y="421"
     inkscape:window-maximized="0"
     inkscape:current-layer="svg1" />
  <circle
     style="fill:#6d7681;fill-opacity:1;stroke-width:2.11934"
     id="path2"
     cx="12"
     cy="12"
     r="12" />
  <path
     d="m 6.9245126,4.3991271 a 2.3211743,2.3211743 0 0 1 0.5320845,4.5809267 0.59064958,0.59064958 0 0 1 0.00357,0.061422 v 5.7136592 a 0.59064958,0.59064958 0 0 1 -0.00357,0.06142 2.3211743,2.3211743 0 0 1 -0.5320845,4.580926 2.3211743,2.3211743 0 0 1 -0.5320846,-4.580926 0.59064958,0.59064958 0 0 1 -0.00357,-0.06142 V 9.0414756 c 0,-0.020712 0.00143,-0.04071 0.00357,-0.061422 A 2.3211743,2.3211743 0 0 1 6.9245126,4.3991271 Z M 14.959346,17.076309 a 2.3211745,2.3211745 0 1 1 4.642349,0 2.3211745,2.3211745 0 0 1 -4.642349,0 z M 5.6746495,6.7203014 a 1.2502203,1.2502203 0 1 0 2.5004404,-7.143e-4 1.2502203,1.2502203 0 0 0 -2.5004404,7.143e-4 z m 0,10.3560076 a 1.2502203,1.2502203 0 1 0 2.5004404,-7.13e-4 1.2502203,1.2502203 0 0 0 -2.5004404,7.13e-4 z M 17.28052,15.826446 a 1.2502202,1.2502202 0 1 0 7.15e-4,2.50044 1.2502202,1.2502202 0 0 0 -7.15e-4,-2.50044 z m 0,-8.2133853 a 1.2498631,1.2498631 0 1 0 0,-2.4997262 1.2498631,1.2498631 0 0 0 0,2.4997262 z m 1.249863,3.7495893 a 1.249863,1.249863 0 1 1 -2.499726,0 1.249863,1.249863 0 0 1 2.499726,0 z"
     id="path1"
     style="fill:#ffffff;stroke-width:0.714207" />
</svg>
