<?xml version="1.0" encoding="UTF-8" standalone="no"?>
<svg
   viewBox="0 0 24 24"
   width="24"
   height="24"
   version="1.1"
   id="svg1"
   sodipodi:docname="git-pull-request-draft.svg"
   inkscape:version="1.3.2 (091e20e, 2023-11-25)"
   xmlns:inkscape="http://www.inkscape.org/namespaces/inkscape"
   xmlns:sodipodi="http://sodipodi.sourceforge.net/DTD/sodipodi-0.dtd"
   xmlns="http://www.w3.org/2000/svg"
   xmlns:svg="http://www.w3.org/2000/svg">
  <defs
     id="defs1" />
  <sodipodi:namedview
     id="namedview1"
     pagecolor="#ffffff"
     bordercolor="#000000"
     borderopacity="0.25"
     inkscape:showpageshadow="2"
     inkscape:pageopacity="0.0"
     inkscape:pagecheckerboard="0"
     inkscape:deskcolor="#d1d1d1"
     inkscape:zoom="9.8333333"
     inkscape:cx="11.949153"
     inkscape:cy="12"
     inkscape:window-width="1728"
     inkscape:window-height="1051"
     inkscape:window-x="0"
     inkscape:window-y="38"
     inkscape:window-maximized="1"
     inkscape:current-layer="svg1" />
  <circle
     style="fill:#6d7681;fill-opacity:1;stroke-width:2.11934"
     id="path2"
     cx="12"
     cy="12"
     r="12" />
  <path
     d="m 6.4776726,4.0008759 a 2.475919,2.475919 0 0 1 0.5675568,4.8863213 0.63002615,0.63002615 0 0 1 0.00381,0.065517 v 6.0945688 a 0.63002615,0.63002615 0 0 1 -0.00381,0.06552 2.475919,2.475919 0 0 1 -0.5675568,4.886321 2.475919,2.475919 0 0 1 -0.5675568,-4.886321 0.63002615,0.63002615 0 0 1 -0.00381,-0.06552 V 8.9527138 c 0,-0.022093 0.00152,-0.043424 0.00381,-0.065517 A 2.475919,2.475919 0 0 1 6.4776726,4.0008759 Z M 15.048161,17.523202 a 2.475919,2.475919 0 1 1 4.951838,0 2.475919,2.475919 0 0 1 -4.951838,0 z M 5.1444855,6.4767949 A 1.3335681,1.3335681 0 1 0 7.8116216,6.476033 1.3335681,1.3335681 0 0 0 5.1444855,6.4767949 Z m 0,11.0464071 a 1.3335681,1.3335681 0 1 0 2.6671361,-7.61e-4 1.3335681,1.3335681 0 0 0 -2.6671361,7.61e-4 z M 17.52408,16.190015 a 1.3335681,1.3335681 0 1 0 7.62e-4,2.667136 1.3335681,1.3335681 0 0 0 -7.62e-4,-2.667136 z m 0,-8.7609436 a 1.3331872,1.3331872 0 1 0 0,-2.6663743 1.3331872,1.3331872 0 0 0 0,2.6663743 z m 1.333187,3.9995616 a 1.3331871,1.3331871 0 1 1 -2.666374,0 1.3331871,1.3331871 0 0 1 2.666374,0 z"
     id="path1"
     style="stroke-width:0.761821;fill:#ffffff" />
</svg>
