<?xml version="1.0" encoding="UTF-8" standalone="no"?>
<svg
   viewBox="0 0 24 24"
   width="24"
   height="24"
   version="1.1"
   id="svg2"
   sodipodi:docname="git-pull-request_white.svg"
   inkscape:version="1.3.2 (091e20e, 2023-11-25)"
   xmlns:inkscape="http://www.inkscape.org/namespaces/inkscape"
   xmlns:sodipodi="http://sodipodi.sourceforge.net/DTD/sodipodi-0.dtd"
   xmlns="http://www.w3.org/2000/svg"
   xmlns:svg="http://www.w3.org/2000/svg">
  <defs
     id="defs2" />
  <sodipodi:namedview
     id="namedview2"
     pagecolor="#ffffff"
     bordercolor="#000000"
     borderopacity="0.25"
     inkscape:showpageshadow="2"
     inkscape:pageopacity="0.0"
     inkscape:pagecheckerboard="0"
     inkscape:deskcolor="#d1d1d1"
     inkscape:zoom="9.8333333"
     inkscape:cx="12"
     inkscape:cy="12"
     inkscape:window-width="1312"
     inkscape:window-height="449"
     inkscape:window-x="61"
     inkscape:window-y="101"
     inkscape:window-maximized="0"
     inkscape:current-layer="svg2" />
  <path
     d="M16 19.25a3.25 3.25 0 1 1 6.5 0 3.25 3.25 0 0 1-6.5 0Zm-14.5 0a3.25 3.25 0 1 1 6.5 0 3.25 3.25 0 0 1-6.5 0Zm0-14.5a3.25 3.25 0 1 1 6.5 0 3.25 3.25 0 0 1-6.5 0ZM4.75 3a1.75 1.75 0 1 0 .001 3.501A1.75 1.75 0 0 0 4.75 3Zm0 14.5a1.75 1.75 0 1 0 .001 3.501A1.75 1.75 0 0 0 4.75 17.5Zm14.5 0a1.75 1.75 0 1 0 .001 3.501 1.75 1.75 0 0 0-.001-3.501Z"
     id="path1"
     style="fill:#ffffff" />
  <path
     d="M13.405 1.72a.75.75 0 0 1 0 1.06L12.185 4h4.065A3.75 3.75 0 0 1 20 7.75v8.75a.75.75 0 0 1-1.5 0V7.75a2.25 2.25 0 0 0-2.25-2.25h-4.064l1.22 1.22a.75.75 0 0 1-1.061 1.06l-2.5-2.5a.75.75 0 0 1 0-1.06l2.5-2.5a.75.75 0 0 1 1.06 0ZM4.75 7.25A.75.75 0 0 1 5.5 8v8A.75.75 0 0 1 4 16V8a.75.75 0 0 1 .75-.75Z"
     id="path2"
     style="fill:#ffffff" />
</svg>
