<?xml version="1.0" encoding="UTF-8" standalone="no"?>
<svg
   viewBox="0 0 22 22"
   width="22"
   height="22"
   version="1.1"
   id="svg2"
   sodipodi:docname="menu-bar-unread.svg"
   inkscape:version="1.3.2 (091e20e, 2023-11-25)"
   inkscape:export-filename="menu-bar-dark.png"
   inkscape:export-xdpi="96"
   inkscape:export-ydpi="96"
   xmlns:inkscape="http://www.inkscape.org/namespaces/inkscape"
   xmlns:sodipodi="http://sodipodi.sourceforge.net/DTD/sodipodi-0.dtd"
   xmlns="http://www.w3.org/2000/svg"
   xmlns:svg="http://www.w3.org/2000/svg">
  <defs
     id="defs2" />
  <sodipodi:namedview
     id="namedview2"
     pagecolor="#ffffff"
     bordercolor="#000000"
     borderopacity="0.25"
     inkscape:showpageshadow="2"
     inkscape:pageopacity="0.0"
     inkscape:pagecheckerboard="0"
     inkscape:deskcolor="#d1d1d1"
     inkscape:zoom="31.123778"
     inkscape:cx="11.116902"
     inkscape:cy="11.4382"
     inkscape:window-width="1392"
     inkscape:window-height="1051"
     inkscape:window-x="2659"
     inkscape:window-y="103"
     inkscape:window-maximized="0"
     inkscape:current-layer="svg2"
     showguides="true" />
  <g
     id="g1"
     transform="matrix(0.76190476,0,0,0.76190476,2.2639225,1.6537531)"
     style="fill:#000000">
    <path
       d="m 16,19.25 a 3.25,3.25 0 1 1 6.5,0 3.25,3.25 0 0 1 -6.5,0 z m -14.5,0 a 3.25,3.25 0 1 1 6.5,0 3.25,3.25 0 0 1 -6.5,0 z m 0,-14.5 a 3.25,3.25 0 1 1 6.5,0 3.25,3.25 0 0 1 -6.5,0 z M 4.75,3 A 1.7505001,1.7505001 0 1 0 4.751,6.501 1.7505001,1.7505001 0 0 0 4.75,3 Z m 0,14.5 A 1.7505001,1.7505001 0 1 0 4.751,21.001 1.7505001,1.7505001 0 0 0 4.75,17.5 Z m 14.5,0 A 1.7505001,1.7505001 0 1 0 19.251,21.001 1.7505001,1.7505001 0 0 0 19.25,17.5 Z"
       id="path1"
       style="fill:#000000" />
    <path
       d="m 13.405,1.72 a 0.75,0.75 0 0 1 0,1.06 L 12.185,4 H 16.25 A 3.75,3.75 0 0 1 20,7.75 v 8.75 a 0.75,0.75 0 0 1 -1.5,0 V 7.75 A 2.25,2.25 0 0 0 16.25,5.5 h -4.064 l 1.22,1.22 a 0.75,0.75 0 0 1 -1.061,1.06 l -2.5,-2.5 a 0.75,0.75 0 0 1 0,-1.06 l 2.5,-2.5 a 0.75,0.75 0 0 1 1.06,0 z M 4.75,7.25 A 0.75,0.75 0 0 1 5.5,8 v 8 A 0.75,0.75 0 0 1 4,16 V 8 A 0.75,0.75 0 0 1 4.75,7.25 Z"
       id="path2"
       style="fill:#000000" />
  </g>
  <circle
     style="fill:#000000;stroke:none;stroke-width:98.7061;stroke-dasharray:none"
     id="path3"
     cx="15.5"
     cy="14.5"
     r="4.5" />
</svg>
