<?xml version="1.0" encoding="UTF-8" standalone="no"?>
<svg
   viewBox="0 0 24 24"
   width="24"
   height="24"
   version="1.1"
   id="svg1"
   sodipodi:docname="git-pull-request-closed.svg"
   inkscape:version="1.3.2 (091e20e, 2023-11-25)"
   xmlns:inkscape="http://www.inkscape.org/namespaces/inkscape"
   xmlns:sodipodi="http://sodipodi.sourceforge.net/DTD/sodipodi-0.dtd"
   xmlns="http://www.w3.org/2000/svg"
   xmlns:svg="http://www.w3.org/2000/svg">
  <defs
     id="defs1" />
  <sodipodi:namedview
     id="namedview1"
     pagecolor="#ffffff"
     bordercolor="#000000"
     borderopacity="0.25"
     inkscape:showpageshadow="2"
     inkscape:pageopacity="0.0"
     inkscape:pagecheckerboard="0"
     inkscape:deskcolor="#d1d1d1"
     inkscape:zoom="9.8333333"
     inkscape:cx="12"
     inkscape:cy="12"
     inkscape:window-width="1728"
     inkscape:window-height="1051"
     inkscape:window-x="0"
     inkscape:window-y="38"
     inkscape:window-maximized="1"
     inkscape:current-layer="svg1" />
  <circle
     style="fill:#da3633;fill-opacity:1;stroke-width:1.67528"
     id="path2"
     cx="12"
     cy="12"
     r="12" />
  <path
     d="M 19.825722,4.9550768 A 0.57150991,0.57150991 0 1 0 19.017226,4.1473428 L 17.506154,5.658415 15.99432,4.1473428 a 0.57150991,0.57150991 0 1 0 -0.807734,0.807734 l 1.511072,1.5110722 -1.511072,1.5118342 a 0.57150991,0.57150991 0 0 0 0.807734,0.807734 L 17.506154,7.274645 19.017226,8.7857172 A 0.57150991,0.57150991 0 0 0 19.82496,7.9779832 L 18.313888,6.466149 Z M 6.4782984,4.0322788 a 2.4765429,2.4765429 0 0 1 0.5676999,4.8875527 0.63018492,0.63018492 0 0 1 0.00381,0.065533 V 15.08147 A 0.63018492,0.63018492 0 0 1 7.0459983,15.147 2.4765429,2.4765429 0 0 1 6.4782984,20.034553 2.4765429,2.4765429 0 0 1 5.9105986,15.147 0.63018492,0.63018492 0 0 1 5.9067886,15.08147 V 8.9853646 c 0,-0.022098 0.00152,-0.043435 0.00381,-0.065533 A 2.4765429,2.4765429 0 0 1 6.4782984,4.0322788 Z M 15.050947,17.558013 a 2.4780669,2.4780669 0 0 1 1.905033,-2.410248 v -4.924129 a 0.57151,0.57151 0 0 1 1.14302,0 v 4.924129 a 2.4780669,2.4780669 0 0 1 -0.57151,4.886791 2.4765429,2.4765429 0 0 1 -2.476543,-2.476543 z M 5.1447753,6.5088217 a 1.3339042,1.3339042 0 1 0 2.6678083,-7.62e-4 1.3339042,1.3339042 0 0 0 -2.6678083,7.62e-4 z m 0,11.0491913 a 1.3339042,1.3339042 0 1 0 2.6678083,-7.62e-4 1.3339042,1.3339042 0 0 0 -2.6678083,7.62e-4 z M 17.52749,16.22449 a 1.3339042,1.3339042 0 1 0 7.62e-4,2.667808 1.3339042,1.3339042 0 0 0 -7.62e-4,-2.667808 z"
     id="path1"
     style="stroke-width:0.762013;fill:#ffffff" />
</svg>
