<?xml version="1.0" encoding="UTF-8" standalone="no"?>
<svg
   viewBox="0 0 24 24"
   width="24"
   height="24"
   version="1.1"
   id="svg1"
   sodipodi:docname="pull-request-closed.svg"
   inkscape:version="1.3.2 (091e20e, 2023-11-25)"
   xmlns:inkscape="http://www.inkscape.org/namespaces/inkscape"
   xmlns:sodipodi="http://sodipodi.sourceforge.net/DTD/sodipodi-0.dtd"
   xmlns="http://www.w3.org/2000/svg"
   xmlns:svg="http://www.w3.org/2000/svg">
  <defs
     id="defs1" />
  <sodipodi:namedview
     id="namedview1"
     pagecolor="#ffffff"
     bordercolor="#000000"
     borderopacity="0.25"
     inkscape:showpageshadow="2"
     inkscape:pageopacity="0.0"
     inkscape:pagecheckerboard="0"
     inkscape:deskcolor="#d1d1d1"
     inkscape:zoom="9.8333333"
     inkscape:cx="11.898305"
     inkscape:cy="12"
     inkscape:window-width="1392"
     inkscape:window-height="1051"
     inkscape:window-x="0"
     inkscape:window-y="421"
     inkscape:window-maximized="0"
     inkscape:current-layer="svg1" />
  <circle
     style="fill:#da3633;fill-opacity:1;stroke-width:1.67528"
     id="path2"
     cx="12"
     cy="12"
     r="12" />
  <path
     d="M 19.234912,5.4970785 A 0.53579047,0.53579047 0 1 0 18.476948,4.739828 l -1.41663,1.41663 -1.417344,-1.41663 a 0.53579047,0.53579047 0 1 0 -0.757251,0.7572505 l 1.41663,1.41663 -1.41663,1.4173444 a 0.53579047,0.53579047 0 0 0 0.757251,0.7572505 l 1.417344,-1.41663 1.41663,1.41663 a 0.53579047,0.53579047 0 0 0 0.75725,-0.7572505 L 17.817568,6.9137085 Z M 6.7217049,4.6319555 a 2.3217587,2.3217587 0 0 1 0.5322186,4.5820801 0.59079829,0.59079829 0 0 1 0.00357,0.061437 v 5.7150984 a 0.59079829,0.59079829 0 0 1 -0.00357,0.06143 2.3217587,2.3217587 0 0 1 -0.5322186,4.582081 2.3217587,2.3217587 0 0 1 -0.5322185,-4.582081 0.59079829,0.59079829 0 0 1 -0.00357,-0.06143 V 9.2754729 c 0,-0.020717 0.00143,-0.04072 0.00357,-0.061437 A 2.3217587,2.3217587 0 0 1 6.7217049,4.6319555 Z M 14.758561,17.31233 a 2.3231874,2.3231874 0 0 1 1.785969,-2.259607 v -4.616371 a 0.53579056,0.53579056 0 0 1 1.071581,0 v 4.616371 A 2.3231874,2.3231874 0 0 1 17.08032,19.634089 2.3217587,2.3217587 0 0 1 14.758561,17.31233 Z M 5.4715272,6.9537142 a 1.250535,1.250535 0 1 0 2.5010699,-7.144e-4 1.250535,1.250535 0 0 0 -2.5010699,7.144e-4 z m 0,10.3586158 a 1.250535,1.250535 0 1 0 2.5010699,-7.15e-4 1.250535,1.250535 0 0 0 -2.5010699,7.15e-4 z M 17.08032,16.062152 a 1.2505351,1.2505351 0 1 0 7.15e-4,2.50107 1.2505351,1.2505351 0 0 0 -7.15e-4,-2.50107 z"
     id="path1"
     style="fill:#ffffff;stroke-width:0.714387" />
</svg>
