<?xml version="1.0" encoding="UTF-8" standalone="no"?>
<svg
   viewBox="0 0 24 24"
   width="24"
   height="24"
   version="1.1"
   id="svg3"
   sodipodi:docname="git-merge.svg"
   inkscape:version="1.3.2 (091e20e, 2023-11-25)"
   xmlns:inkscape="http://www.inkscape.org/namespaces/inkscape"
   xmlns:sodipodi="http://sodipodi.sourceforge.net/DTD/sodipodi-0.dtd"
   xmlns="http://www.w3.org/2000/svg"
   xmlns:svg="http://www.w3.org/2000/svg">
  <defs
     id="defs3" />
  <sodipodi:namedview
     id="namedview3"
     pagecolor="#ffffff"
     bordercolor="#000000"
     borderopacity="0.25"
     inkscape:showpageshadow="2"
     inkscape:pageopacity="0.0"
     inkscape:pagecheckerboard="0"
     inkscape:deskcolor="#d1d1d1"
     inkscape:zoom="9.8333333"
     inkscape:cx="11.949153"
     inkscape:cy="12"
     inkscape:window-width="1728"
     inkscape:window-height="1051"
     inkscape:window-x="0"
     inkscape:window-y="38"
     inkscape:window-maximized="1"
     inkscape:current-layer="svg3" />
  <circle
     style="fill:#8957e5;fill-opacity:1;stroke-width:2.05039"
     id="path4"
     cx="12"
     cy="12"
     r="12" />
  <g
     id="g3"
     transform="matrix(0.84210526,0,0,0.84210526,1.8947369,1.8947369)"
     style="fill:#ffffff">
    <path
       d="m 15,13.25 a 3.25,3.25 0 1 1 6.5,0 3.25,3.25 0 0 1 -6.5,0 z m -12.5,6 a 3.25,3.25 0 1 1 6.5,0 3.25,3.25 0 0 1 -6.5,0 z m 0,-14.5 a 3.25,3.25 0 1 1 6.5,0 3.25,3.25 0 0 1 -6.5,0 z M 5.75,6.5 A 1.7505001,1.7505001 0 1 0 5.749,2.999 1.7505001,1.7505001 0 0 0 5.75,6.5 Z m 0,14.5 A 1.7505001,1.7505001 0 1 0 5.749,17.499 1.7505001,1.7505001 0 0 0 5.75,21 Z m 12.5,-6 A 1.7505001,1.7505001 0 1 0 18.249,11.499 1.7505001,1.7505001 0 0 0 18.25,15 Z"
       id="path1"
       style="fill:#ffffff" />
    <path
       d="m 6.5,7.25 c 0,2.9 2.35,5.25 5.25,5.25 h 4.5 V 14 h -4.5 A 6.75,6.75 0 0 1 5,7.25 Z"
       id="path2"
       style="fill:#ffffff" />
    <path
       d="M 5.75,16.75 A 0.75,0.75 0 0 1 5,16 V 8 a 0.75,0.75 0 0 1 1.5,0 v 8 a 0.75,0.75 0 0 1 -0.75,0.75 z"
       id="path3"
       style="fill:#ffffff" />
  </g>
</svg>
